<?xml version="1.0" standalone="no"?>
<!DOCTYPE svg PUBLIC "-//W3C//DTD SVG 20010904//EN"
 "http://www.w3.org/TR/2001/REC-SVG-20010904/DTD/svg10.dtd">
<svg version="1.0" xmlns="http://www.w3.org/2000/svg"
 width="700.000000pt" height="700.000000pt" viewBox="0 0 700.000000 700.000000"
 preserveAspectRatio="xMidYMid meet">
<metadata>
Created by potrace 1.11, written by Peter Selinger 2001-2013
</metadata>
<g transform="translate(0.000000,700.000000) scale(0.100000,-0.100000)"
fill="#000000" stroke="none">
<path d="M2489 6782 c-15 -9 -284 -275 -599 -590 -315 -315 -574 -571 -576
-570 -2 2 -86 85 -188 186 -137 135 -191 182 -210 183 -14 1 -32 2 -38 3 -39
6 -128 -61 -161 -120 -14 -24 -10 -92 6 -117 8 -12 130 -138 272 -279 239
-240 260 -257 300 -263 30 -5 52 -2 74 9 42 22 1339 1319 1351 1352 25 66 -3
143 -72 193 -49 37 -116 42 -159 13z"/>
<path d="M1215 6689 c-191 -18 -365 -80 -525 -187 -312 -208 -502 -552 -512
-922 -2 -66 8 -213 17 -250 78 -341 261 -599 546 -771 264 -158 609 -202 909
-114 59 17 61 18 164 64 204 92 406 284 520 492 37 67 94 213 102 259 3 14 7
31 9 38 27 75 34 289 11 342 -53 127 -230 129 -294 4 -6 -11 -13 -66 -16 -121
-21 -364 -244 -658 -579 -762 -147 -45 -320 -47 -462 -6 -273 80 -475 274
-565 545 -45 138 -47 332 -5 475 54 185 173 347 330 453 57 38 141 80 195 98
14 4 30 9 35 11 96 31 287 36 421 10 76 -14 107 -9 157 25 82 58 80 195 -5
258 -64 47 -277 75 -453 59z"/>
<path d="M3010 6058 c-30 -33 -30 -90 0 -123 19 -20 31 -20 1973 -20 1872 0
1956 1 1975 18 37 34 33 115 -8 137 -10 5 -779 9 -1969 9 l-1951 0 -20 -21z"/>
<path d="M3065 5752 c-72 -8 -103 -98 -49 -141 l27 -21 1403 0 c1037 0 1410 3
1428 12 25 11 37 32 42 75 2 22 -38 72 -60 74 -48 2 -2768 3 -2791 1z"/>
<path d="M3034 5415 c-37 -15 -53 -50 -43 -90 17 -64 -83 -59 1457 -60 1326
-1 1405 0 1433 17 16 10 30 26 30 35 4 44 -2 68 -21 87 -21 21 -22 21 -1424
22 -1089 1 -1410 -1 -1432 -11z"/>
<path d="M1175 2480 c-22 -5 -53 -10 -70 -13 -256 -41 -532 -216 -704 -447
-228 -306 -287 -708 -156 -1070 22 -63 87 -194 97 -198 4 -2 8 -9 8 -14 0 -6
24 -43 54 -82 183 -242 440 -398 741 -450 79 -14 274 -14 363 -1 142 20 360
112 483 202 245 178 399 418 459 712 24 121 28 263 7 312 -38 89 -147 126
-227 78 -66 -41 -78 -69 -85 -192 -2 -51 -7 -102 -9 -115 -41 -195 -121 -341
-257 -467 -128 -118 -291 -194 -455 -211 -92 -9 -97 -9 -184 -1 -326 32 -602
259 -701 577 -28 92 -34 131 -33 250 1 514 485 905 984 794 66 -14 101 -15
135 -4 129 43 146 233 27 294 -79 40 -363 67 -477 46z"/>
<path d="M3006 1848 c-24 -37 -26 -73 -5 -107 l19 -31 1965 0 1965 0 14 23
c24 36 26 72 5 106 l-19 31 -1965 0 -1965 0 -14 -22z"/>
<path d="M3031 1534 c-63 -26 -56 -122 11 -142 22 -7 510 -10 1429 -9 1207 2
1398 4 1414 17 41 34 39 100 -3 128 -24 16 -129 17 -1424 18 -1068 0 -1405 -3
-1427 -12z"/>
<path d="M3016 1199 c-36 -28 -36 -86 -1 -119 l25 -23 1405 0 c1106 0 1411 3
1429 13 49 26 54 89 10 128 l-25 22 -1408 0 -1408 0 -27 -21z"/>
</g>
</svg>
